<?xml version="1.0" encoding="utf-8"?>
<!-- Generator: Adobe Illustrator 27.3.1, SVG Export Plug-In . SVG Version: 6.00 Build 0)  -->
<svg version="1.1" id="Layer_2_00000142877030925988498830000003417706122348079751_"
	 xmlns="http://www.w3.org/2000/svg" xmlns:xlink="http://www.w3.org/1999/xlink" x="0px" y="0px" viewBox="0 0 203 202.6"
	 style="enable-background:new 0 0 203 202.6;" xml:space="preserve">
<style type="text/css">
	.st0{fill:#FFFFFF;}
	.st1{fill:#DC5726;}
	.st2{fill:#35767C;}
	.st3{fill:#D8A763;}
	.st4{fill:#67C087;}
	.st5{fill:none;}
</style>
<g id="Layer_2-2">
	<path class="st0" d="M203,18.6v165.5c0,10.2-8.3,18.5-18.5,18.5H19c-10.2,0-18.5-8.3-18.5-18.5V18.6C0.5,8.4,8.8,0.1,19,0.1h165.5
		C194.7,0.1,203,8.4,203,18.6L203,18.6z"/>
	<path class="st1" d="M78.7,0.1v78.7H0.5V18.6C0.5,8.4,8.8,0.1,19,0.1H78.7z"/>
	<rect x="78.7" y="0" class="st2" width="78.8" height="78.8"/>
	<polygon class="st3" points="78.7,78.8 78.7,157.5 0,157.5 0,157.4 0.5,157.4 0.5,78.8 	"/>
	<rect x="78.7" y="78.8" class="st4" width="78.8" height="78.8"/>
	<path class="st1" d="M45.9,157.4v45.1H19c-10.2,0-18.5-8.3-18.5-18.5v-26.6H0v-0.1H45.9L45.9,157.4z"/>
	<rect x="46" y="157.5" class="st2" width="59" height="45.2"/>
	<rect x="104.8" y="157.5" class="st3" width="52.6" height="45.1"/>
	<path class="st3" d="M203,18.6v25.2h-45.5V0.1h27C194.7,0.1,203,8.4,203,18.6L203,18.6z"/>
	<rect x="157.4" y="43.8" class="st1" width="45.5" height="64.6"/>
	<path class="st4" d="M203,108.3v73.6c0,11.4-8.3,20.6-18.5,20.6h-27v0.1h0v-94.3H203L203,108.3z"/>
</g>
<circle class="st5" cx="101.5" cy="101.3" r="100.8"/>
</svg>
