<?xml version="1.0" encoding="UTF-8"?>
<svg id="Layer_2" data-name="Layer 2" xmlns="http://www.w3.org/2000/svg" viewBox="0 0 247.48 247.48">
  <defs>
    <style>
      .cls-1, .cls-2 {
        fill: #67c087;
      }

      .cls-3, .cls-4 {
        fill: #35767c;
      }

      .cls-5 {
        fill: #fff;
        stroke: #000;
        stroke-miterlimit: 10;
      }

      .cls-4 {
        stroke: #35767c;
      }

      .cls-6, .cls-7 {
        fill: #dc5726;
        stroke: #dc5726;
      }

      .cls-8 {
        fill: #d8a763;
        stroke: #d8a763;
      }

      .cls-2 {
        stroke: #67c087;
      }

      .cls-7 {
        stroke-width: .5px;
      }
    </style>
  </defs>
  <g id="Layer_2-2" data-name="Layer 2">
    <rect class="cls-5" x=".5" y=".5" width="246.48" height="246.48" rx="29.99" ry="29.99"/>
    <g>
      <path class="cls-6" d="m15.04,228.16v-35.52c0-2.61,2.12-4.72,4.72-4.72h24.97c2.61,0,4.72,2.12,4.72,4.72v17.36c0,4.27,3.46,7.72,7.72,7.72h.74c2.61,0,4.72,2.12,4.72,4.72v5.71c0,2.61-2.12,4.72-4.72,4.72H19.76c-2.61,0-4.72-2.12-4.72-4.72Z"/>
      <path class="cls-3" d="m97.99,233.97c-8.06,0-14.47-1.72-19.06-5.12-4.37-3.24-6.5-8.3-6.5-15.45v-23.21c0-3.22,2.6-5.83,5.82-5.83h39.49c3.22-.01,5.83,2.6,5.83,5.82v23.22c0,7.16-2.11,12.21-6.49,15.46-4.59,3.41-11.01,5.13-19.08,5.13h-.02Z"/>
      <path class="cls-8" d="m134.53,188.89c0-.49.39-.89.88-.89h10.07c.13,0,.18,0,.34.22.1.14.22.27.34.39l15.43,14.79c.57.55,1.32.83,2.08.83.66,0,1.33-.22,1.89-.67.75-.59,1.11-1.55,1.11-2.5v-12.66c0-.23.19-.42.42-.42h10.16c.23,0,.42.19.42.42l-.2,42.51c0,.86-.7,1.55-1.55,1.55h-39.06c-.86,0-1.55-.68-1.57-1.54l-.75-42.04Z"/>
      <path class="cls-1" d="m187.24,231.99c0,.35.03.66.09.93h22.14c7.09,0,12.6-2.75,16.84-8.39,4.83-6.52,7.29-17.33,7.29-32.13v-14.85l.1-38.64c0-.5-.19-.97-.55-1.33-.37-.38-.88-.58-1.42-.58l-39.87.04c-2.5,0-4.53,2.03-4.53,4.53l-.09,90.43Z"/>
      <path class="cls-7" d="m188.44,123.86v-53.08c0-1.31,1.06-2.37,2.37-2.37h39.81c1.31,0,2.37,1.06,2.37,2.37v7.04c0,1.31-1.06,2.37-2.37,2.37h-23.37c-2.96,0-5.37,2.4-5.37,5.37v1.01c0,2.96,2.4,5.37,5.37,5.37h19.26c1.31,0,2.37,1.06,2.37,2.37v6.04c0,1.31-1.06,2.37-2.37,2.37h-19.26c-2.96,0-5.37,2.4-5.37,5.37v1.01c0,2.96,2.4,5.37,5.37,5.37h24.12c1.31,0,2.37,1.06,2.37,2.37v7.04c0,1.31-1.06,2.37-2.37,2.37h-40.56c-1.31,0-2.37-1.06-2.37-2.37Z"/>
      <path class="cls-8" d="m187.05,56.14V17.1c0-1.52,1.23-2.75,2.75-2.75h8.74c.31,0,.45.07.65.32.09.11.18.21.29.31l16.71,15.73c.57.53,1.31.82,2.06.82.8,0,1.6-.32,2.23-.99.53-.56.77-1.34.77-2.11v-11.63c0-1.35,1.1-2.45,2.45-2.45h7.44c1.39,0,2.51,1.13,2.51,2.51v39.61c0,1.34-1.08,2.42-2.42,2.42h-41.43c-1.52,0-2.75-1.23-2.75-2.75Z"/>
      <path class="cls-6" d="m56.91,91.63c-13.54,0-24.12-2.3-31.44-6.85-5.44-3.38-8.7-7.2-9.87-11.6-.46-1.74.88-3.45,2.68-3.45h22.84c1.03,0,1.79.23,2.33.71,3,2.58,7.68,3.82,14.34,3.82,4.9,0,15.09,0,15.09-6.36,0-1.95-1.02-4.6-5.91-6.16-2.78-.88-7.93-1.7-15.75-2.5-22.41-2.45-33.32-9.69-33.32-22.13,0-6.91,3.33-12.38,10.19-16.73,7.2-4.57,17.08-6.88,29.38-6.88s22.28,2.49,29.71,7.41c4.94,3.26,8.17,6.58,9.66,9.92.82,1.83-.52,3.89-2.52,3.89-7.38,0-23.93,0-23.93,0-.83,0-1.48-.21-2.04-.68-2.59-2.11-6.31-3.17-11.07-3.17-7.65,0-11.53,2.1-11.53,6.24,0,1.81.95,4.26,5.46,5.59,2.41.72,6.92,1.41,13.78,2.13,13.35,1.41,22.89,3.98,28.35,7.66,5.06,3.41,7.52,8.44,7.52,15.39s-3.71,12.33-11.35,16.73c-8.07,4.65-19.04,7-32.61,7Z"/>
      <path class="cls-4" d="m179.14,91.05c.68,2.37-1.1,4.73-3.56,4.73h-14.05c-.41,0-1.18,0-1.87-2.15l-2.59-8.61c-.39-1.3-1.59-2.19-2.94-2.19h-25.51c-1.36,0-2.55.89-2.94,2.19l-2.61,8.66c-.68,2.1-1.44,2.1-1.85,2.1l-12.25-.06c-3.41-.02-5.86-3.29-4.92-6.56l20.88-72.58c.02-.05.03-.1.04-.16.41-1.78,1.08-1.78,1.8-1.78h29.19c.72,0,1.39,0,1.8,1.78.01.05.03.1.04.16l21.34,74.47Zm-38.38-52.3c-.81.2-1.41.88-1.65,1.68l-5.56,18.51c-.21.68-.08,1.42.35,1.99.43.57,1.1.91,1.81.91h11.21c.71,0,1.38-.34,1.81-.91.43-.57.56-1.31.35-1.99l-5.6-18.65c-.34-1.13-1.5-1.83-2.71-1.54Z"/>
      <path class="cls-8" d="m53.18,179.21c-9.4,0-17.4-2.1-23.76-6.24-7.34-4.77-11.4-12.59-12.42-23.91l-1.27-14c-.51-5.62.03-10.7,1.61-15.08,1.55-4.31,3.95-7.9,7.15-10.67,6.55-5.63,15.48-8.89,26.52-9.7,1.57-.11,3.12-.17,4.62-.17,3.78,0,7.4.37,10.76,1.1,4.62,1.01,8.37,2.4,11.14,4.14,2.86,1.79,5.37,3.8,7.46,5.96,1.78,1.84,3.14,3.56,4.07,5.16.99,1.7-.14,3.85-2.1,3.99l-20.55,1.5c-.13,0-.25.01-.36.01-.51,0-.68-.09-.68-.09-2.73-2.62-6.24-3.97-10.38-3.97-.47,0-.95.02-1.45.05-4.54.33-8.14,1.61-10.71,3.8-2.81,2.4-4.14,5.51-3.82,9.01l1.77,19.55c.36,3.94,2.18,7.12,5.26,9.17,2.47,1.65,5.61,2.48,9.34,2.48.65,0,1.34-.03,2.03-.08,4.67-.34,8.31-1.72,10.81-4.11,2.65-2.53,3.9-5.46,3.71-8.73-.05-.8-.41-1.55-1.02-2.08-.55-.48-1.25-.74-1.98-.74-.07,0-.15,0-.22,0l-3.09.23c-2.03.15-3.85-1.26-4.21-3.27l-.94-5.23c-.4-2.22,1.17-4.31,3.41-4.56l21.66-2.35c3.66-.4,6.95,2.27,7.32,5.93l.66,6.58c1.04,11.45-1.55,19.89-7.9,25.79-6.47,6.01-15.66,9.48-27.31,10.33-1.75.13-3.47.19-5.12.19Z"/>
      <path class="cls-2" d="m140.72,178.15c-7.9,0-14.83-1.06-20.57-3.16-5.58-2.03-9.96-5.38-13.4-10.22-3.38-4.76-5.1-10.92-5.1-18.33v-13.61c0-10.7,3.43-18.43,10.49-23.65,7.24-5.35,16.86-8.06,28.58-8.06s21.34,2.71,28.58,8.06c7.06,5.21,10.49,12.87,10.49,23.42v14.07c0,7.25-1.72,13.33-5.1,18.1-3.44,4.84-7.83,8.19-13.4,10.22-5.75,2.1-12.67,3.16-20.57,3.16Zm0-59.96c-4.22,0-7.68,1.04-10.29,3.11-2.78,2.2-4.25,5.45-4.25,9.4v17.89c0,3.95,1.47,7.2,4.25,9.4,2.6,2.06,6.06,3.11,10.29,3.11s7.7-1.07,10.31-3.18c2.76-2.24,4.22-5.5,4.22-9.43v-17.67c0-3.93-1.46-7.2-4.22-9.43-2.61-2.11-6.08-3.18-10.31-3.18Z"/>
    </g>
  </g>
</svg>